<svg xmlns="http://www.w3.org/2000/svg" width="600" height="400" viewBox="0 0 600 400">
  <defs>
    <linearGradient id="g4" x1="0" y1="0" x2="1" y2="1">
      <stop offset="0%" stop-color="#0a0a0b"/>
      <stop offset="100%" stop-color="#1a1a2e"/>
    </linearGradient>
  </defs>
  <rect width="600" height="400" fill="url(#g4)"/>
  <rect x="40" y="30" width="520" height="340" rx="16" fill="#141418"/>
  <rect x="60" y="50" width="160" height="90" rx="8" fill="#8b5cf6" opacity="0.2"/>
  <rect x="240" y="50" width="160" height="90" rx="8" fill="#8b5cf6" opacity="0.15"/>
  <rect x="420" y="50" width="120" height="90" rx="8" fill="#8b5cf6" opacity="0.1"/>
  <rect x="60" y="160" width="480" height="30" rx="6" fill="#1e1e24"/>
  <rect x="70" y="168" width="200" height="14" rx="4" fill="#222228"/>
  <rect x="60" y="210" width="230" height="140" rx="8" fill="#1a1a1f"/>
  <rect x="310" y="210" width="230" height="140" rx="8" fill="#1a1a1f"/>
  <rect x="80" y="230" width="100" height="8" rx="4" fill="#333"/>
  <rect x="80" y="248" width="70" height="8" rx="4" fill="#2a2a2a"/>
  <rect x="80" y="280" width="180" height="50" rx="8" fill="#8b5cf6" opacity="0.1"/>
  <rect x="330" y="230" width="100" height="8" rx="4" fill="#333"/>
  <rect x="330" y="248" width="70" height="8" rx="4" fill="#2a2a2a"/>
  <rect x="330" y="280" width="180" height="50" rx="8" fill="#8b5cf6" opacity="0.1"/>
</svg>
